<svg width="200" height="200" viewBox="0 0 200 200" fill="none" xmlns="http://www.w3.org/2000/svg">
<path d="M22.4481 86.04C19.0041 86.04 16.2041 86.768 14.0201 88.224C11.8361 89.68 10.7441 91.808 10.7441 94.608C10.7441 96.484 11.1361 97.996 11.9481 99.116C12.7601 100.236 13.9081 101.132 15.3641 101.748C16.8201 102.364 18.4721 102.868 20.3761 103.204L24.5201 103.988C26.5361 104.38 28.0481 104.828 29.0561 105.388C30.0641 105.948 30.5681 106.872 30.5681 108.132C30.5681 109.392 30.0081 110.428 28.9441 111.268C27.8801 112.108 26.1161 112.528 23.6801 112.528C21.2441 112.528 19.2561 112.052 17.7441 111.044C16.2321 110.064 15.3641 108.636 15.1401 106.76H10.0161C10.1841 109.056 10.8841 110.932 12.1161 112.416C13.3201 113.928 14.9161 115.02 16.9321 115.748C18.9201 116.476 21.1601 116.84 23.6801 116.84C27.4321 116.84 30.3441 116.084 32.4441 114.516C34.5441 112.948 35.6081 110.736 35.6081 107.852C35.6081 105.948 35.1321 104.408 34.2081 103.288C33.2841 102.168 32.0801 101.328 30.5681 100.74C29.0561 100.152 27.4041 99.676 25.6401 99.34L21.4961 98.556C19.5081 98.192 18.0521 97.744 17.1561 97.184C16.2321 96.624 15.7841 95.756 15.7841 94.552C15.7841 93.348 16.2881 92.34 17.3521 91.556C18.3881 90.772 20.0961 90.352 22.4481 90.352C24.8001 90.352 26.6201 90.828 27.9641 91.752C29.2801 92.676 30.0361 94.132 30.2321 96.12H35.3841C35.1881 93.768 34.4881 91.836 33.3121 90.352C32.1361 88.868 30.5961 87.776 28.7201 87.076C26.8161 86.404 24.7441 86.04 22.4481 86.04Z" fill="white"/>
<path d="M40.5501 116H45.5901V106.704L51.0501 102.028L61.9141 116H67.4301V114.88L54.7741 98.836L67.4301 88V86.88H60.9621L45.5901 100.432V75.68H40.5501V116Z" fill="white"/>
<path d="M72.1332 86.88V116H77.1732V86.88H72.1332ZM71.0132 75.68V82.4H78.2932V75.68H71.0132Z" fill="white"/>
<path d="M83.9195 116H88.9595V100.88C88.9595 97.38 89.7435 94.776 91.3395 93.068C92.9075 91.388 95.1195 90.52 97.9195 90.52C100.439 90.52 102.371 91.22 103.715 92.592C105.059 93.964 105.759 95.98 105.759 98.64V116H110.799V97.8C110.799 94.02 109.735 91.108 107.635 89.092C105.535 87.076 102.679 86.04 99.0395 86.04C96.9115 86.04 95.0915 86.404 93.5795 87.104C92.0675 87.832 90.8635 88.812 89.9115 90.072C89.6595 90.38 89.4635 90.52 89.2955 90.52C89.0155 90.52 88.9035 90.408 88.9035 90.128V86.88H83.9195V116Z" fill="white"/>
<path d="M115.794 100.348C115.794 104.436 116.186 108.104 116.998 111.296C117.782 114.488 118.874 117.344 120.218 119.864C121.562 122.384 123.074 124.652 124.726 126.668L127.33 126.64V125.52C125.594 123.448 124.082 121.208 122.766 118.8C121.422 116.42 120.386 113.732 119.658 110.708C118.902 107.712 118.538 104.24 118.538 100.32C118.538 96.4 118.902 92.956 119.658 89.932C120.386 86.936 121.422 84.248 122.766 81.84C124.082 79.46 125.594 77.22 127.33 75.12V74L124.726 74.028C123.074 76.072 121.562 78.34 120.218 80.86C118.874 83.38 117.782 86.236 116.998 89.428C116.186 92.62 115.794 96.26 115.794 100.348Z" fill="white"/>
<path d="M128.184 107.432C128.184 110.232 129.164 112.5 131.18 114.236C133.196 115.972 136.024 116.84 139.664 116.84C141.568 116.84 143.276 116.532 144.788 115.916C146.3 115.3 147.588 114.32 148.624 112.92C148.792 112.696 148.988 112.584 149.184 112.584C149.408 112.584 149.52 112.696 149.52 112.92V116H154.336V97.24C154.336 93.768 153.356 91.052 151.396 89.036C149.436 87.048 146.384 86.04 142.184 86.04C139.384 86.04 137.06 86.488 135.24 87.328C133.392 88.196 132.02 89.372 131.124 90.856C130.2 92.34 129.696 93.992 129.64 95.84H134.848C134.904 94.328 135.492 93.068 136.612 92.004C137.732 90.94 139.608 90.408 142.184 90.408C144.76 90.408 146.608 90.996 147.756 92.144C148.876 93.292 149.464 94.888 149.464 96.96V98.528L138.824 98.976C135.184 99.144 132.496 99.956 130.76 101.44C129.024 102.924 128.184 104.912 128.184 107.432ZM133.224 107.432C133.224 106.172 133.644 105.164 134.54 104.436C135.436 103.708 136.864 103.316 138.824 103.232L149.464 102.784V103.12C149.464 106.2 148.624 108.552 146.944 110.12C145.264 111.688 143.024 112.472 140.224 112.472C137.984 112.472 136.248 112.024 135.044 111.1C133.812 110.204 133.224 108.972 133.224 107.432Z" fill="white"/>
<path d="M157.164 91.36H163.884V107.6C163.884 113.2 166.684 116 172.284 116H177.324V111.52H169.764C169.484 111.52 169.288 111.464 169.148 111.296C168.98 111.156 168.924 110.96 168.924 110.68V91.36H177.324V86.88H168.924V79.04H163.884V86.88H157.164V91.36Z" fill="white"/>
<path d="M189.43 100.32C189.43 96.232 189.01 92.592 188.226 89.4C187.414 86.208 186.322 83.352 184.978 80.832C183.634 78.312 182.122 76.044 180.498 74H177.894V75.12C179.602 77.22 181.114 79.46 182.458 81.84C183.774 84.248 184.81 86.936 185.566 89.932C186.294 92.956 186.686 96.4 186.686 100.32C186.686 104.24 186.294 107.712 185.566 110.708C184.81 113.732 183.774 116.42 182.458 118.8C181.114 121.208 179.602 123.448 177.894 125.52V126.64H180.498C182.122 124.624 183.634 122.356 184.978 119.836C186.322 117.316 187.414 114.46 188.226 111.268C189.01 108.076 189.43 104.408 189.43 100.32Z" fill="white"/>
</svg>
